<svg xmlns="http://www.w3.org/2000/svg" xmlns:xlink="http://www.w3.org/1999/xlink" width="134.469" height="49.344" viewBox="0 0 134.469 49.344">
  <defs>
    <linearGradient id="linear-gradient" x1="1" x2="0.5" y2="1" gradientUnits="objectBoundingBox">
      <stop offset="0" stop-color="#319d50"/>
      <stop offset="1" stop-color="#309b93"/>
    </linearGradient>
  </defs>
  <g id="logo-header" transform="translate(12.355 -1.532)">
    <g id="Group_1116" data-name="Group 1116" transform="translate(32.018 8.887)">
      <path id="Path_2753" data-name="Path 2753" d="M157.7,50.909c0,.67-.05,1.288-.1,1.906A1.244,1.244,0,0,1,156.213,54H139.107a5.809,5.809,0,0,0,5.99,4.276,6.111,6.111,0,0,0,3.79-1.288,2.337,2.337,0,0,1,1.587-.67l4.918-.05c.922,0,1.434.618,1.025,1.444-2,4.482-6.2,6.8-11.423,6.8-8.5,0-13.934-5.926-13.934-13.6a13.255,13.255,0,0,1,13.728-13.6C152.27,37.308,157.7,43.128,157.7,50.909Zm-7.649-2.782a5.129,5.129,0,0,0-5.31-3.967,5.445,5.445,0,0,0-5.665,3.967Z" transform="translate(-131.06 -37.308)" fill="#323e43"/>
      <path id="Path_2754" data-name="Path 2754" d="M280.916,55.436a12.9,12.9,0,0,1-12.6,9.067A13.309,13.309,0,0,1,254.74,50.9a13.309,13.309,0,0,1,13.575-13.6,12.9,12.9,0,0,1,12.6,9.069c.306.876-.206,1.444-1.075,1.444H274.2a1.8,1.8,0,0,1-1.537-.876,5.207,5.207,0,0,0-4.355-2.009,5.977,5.977,0,0,0,0,11.952,5.314,5.314,0,0,0,4.355-1.958,1.688,1.688,0,0,1,1.537-.927h5.636C280.71,53.992,281.222,54.56,280.916,55.436Z" transform="translate(-223.227 -37.3)" fill="#323e43"/>
      <path id="Path_2755" data-name="Path 2755" d="M375.19,50.9a13.575,13.575,0,1,1,13.575,13.6A13.464,13.464,0,0,1,375.19,50.9Zm19.465,0a5.894,5.894,0,1,0-11.782,0,5.894,5.894,0,1,0,11.782,0Z" transform="translate(-312.93 -37.3)" fill="#323e43"/>
    </g>
    <g id="Group_1118" data-name="Group 1118" transform="translate(-12.356 1.532)">
      <path id="Path_2756" data-name="Path 2756" d="M74.313,9.634l-7.1,2.154a.664.664,0,0,1-.831-.454l-1.9-6.809a.661.661,0,0,1,.444-.811l7.1-2.154a.664.664,0,0,1,.831.454l1.9,6.809A.663.663,0,0,1,74.313,9.634Z" transform="translate(-44.271 -1.532)" fill="#319d50"/>
      <path id="Path_2757" data-name="Path 2757" d="M96.916,45.421,89.8,44.545a.66.66,0,0,1-.576-.728l.76-6.983a.662.662,0,0,1,.737-.586l7.118.876a.66.66,0,0,1,.576.728l-.76,6.983A.663.663,0,0,1,96.916,45.421Z" transform="translate(-61.063 -25.07)" fill="#319d50"/>
      <path id="Path_2758" data-name="Path 2758" d="M121.439,8.835l-5.721-.663a.658.658,0,0,1-.579-.734l.6-5.2a.658.658,0,0,1,.734-.579l5.721.663a.658.658,0,0,1,.579.734l-.6,5.2A.666.666,0,0,1,121.439,8.835Z" transform="translate(-78.636 -1.615)" fill="#319d50"/>
      <path id="Path_2759" data-name="Path 2759" d="M35.485,38.791H27.108V30.743H19.221v-7.23c-.187-.006-.37-.013-.56-.013A16.9,16.9,0,0,0,15.68,57.035V47.21a6.278,6.278,0,1,1,6.117-.087v9.883A16.9,16.9,0,0,0,35.562,40.4C35.562,39.857,35.536,39.323,35.485,38.791Z" transform="translate(-1.76 -16.428)" fill="url(#linear-gradient)"/>
      <g id="Group_1117" data-name="Group 1117" transform="translate(12.555 20.915)">
        <path id="Path_2760" data-name="Path 2760" d="M49.452,70.846a4.346,4.346,0,1,0-5.4,4.214V94.024s.019.9,1.146.9a.984.984,0,0,0,1.107-.9V75.031h-.045A4.343,4.343,0,0,0,49.452,70.846Z" transform="translate(-40.76 -66.5)" fill="#3a584c"/>
      </g>
    </g>
    <path id="Path_2761" data-name="Path 2761" d="M13.1-8.4H11.172L9.432-2.712,7.548-8.424H5.964L4.08-2.712,2.34-8.4H.36L3.228.06H4.836l1.9-5.5,1.9,5.5h1.608ZM20.868,0V-1.644h-4.56V-3.408h3.96V-5.052h-3.96v-1.7h4.5V-8.4H14.472V0Zm8.784-2.3v-.024A2.053,2.053,0,0,0,28.08-4.392a1.954,1.954,0,0,0,1.1-1.812v-.024c0-1.32-1.056-2.172-2.772-2.172h-3.9V0h4C28.4,0,29.652-.768,29.652-2.3Zm-2.3-3.588c0,.624-.516.888-1.332.888h-1.7V-6.78h1.824c.78,0,1.212.312,1.212.864Zm.468,3.36c0,.624-.492.912-1.308.912h-2.2V-3.468h2.136c.948,0,1.368.348,1.368.912ZM41.88,0V-8.4H40.032v3.324H36.624V-8.4H34.776V0h1.848V-3.372h3.408V0ZM52.452-4.2v-.024A4.3,4.3,0,0,0,48-8.544,4.344,4.344,0,0,0,43.524-4.2v.024A4.3,4.3,0,0,0,47.976.144,4.344,4.344,0,0,0,52.452-4.2Zm-1.932.024A2.512,2.512,0,0,1,48-1.56,2.552,2.552,0,0,1,45.456-4.2v-.024a2.512,2.512,0,0,1,2.52-2.616A2.552,2.552,0,0,1,50.52-4.2Zm9.588,1.692v-.024c0-1.464-.96-2.076-2.664-2.52-1.452-.372-1.812-.552-1.812-1.1v-.024c0-.408.372-.732,1.08-.732A3.942,3.942,0,0,1,58.9-6.06l.96-1.392a4.862,4.862,0,0,0-3.12-1.068c-1.716,0-2.94,1.008-2.94,2.532v.024C53.8-4.3,54.888-3.828,56.58-3.4c1.4.36,1.692.6,1.692,1.068V-2.3c0,.492-.456.792-1.212.792a3.853,3.853,0,0,1-2.508-1.02L53.46-1.224A5.345,5.345,0,0,0,57.024.12C58.836.12,60.108-.816,60.108-2.484ZM67.9-6.7V-8.4h-6.96v1.7h2.556V0H65.34V-6.7ZM71.244,0V-8.4H69.4V0Zm9.564,0V-8.4H78.984v5.172L75.048-8.4h-1.7V0h1.824V-5.34L79.236,0Zm9.648-1.188V-4.836H86.808v1.6h1.86v1.2a2.949,2.949,0,0,1-1.74.5A2.517,2.517,0,0,1,84.384-4.2v-.024A2.523,2.523,0,0,1,86.8-6.84a3.093,3.093,0,0,1,2.2.852l1.164-1.4a4.612,4.612,0,0,0-3.3-1.152,4.311,4.311,0,0,0-4.4,4.344v.024A4.2,4.2,0,0,0,86.868.144,5.452,5.452,0,0,0,90.456-1.188Z" transform="translate(31.657 49.532)" fill="#295855"/>
  </g>
</svg>
